# xmcd CD database file
#
# Track frame offsets:
#	150
#	10306
#	23886
#	38027
#	51132
#	63692
#	74349
#	84391
#	96965
#	112043
#	126619
#	142279
#	156416
#	170162
#
# Disc length: 2539 seconds
#
# Revision: 0
# Processed by: cddbd v1.5.2PL0 Copyright (c) Steve Scherf et al.
# Submitted via: CDex 1.77
#
DISCID=d509e90e
DTITLE=The Cornell Hurd Band - XX
DYEAR=2014
DGENRE=Country
TTITLE0=Over the Hill and Down the Road
TTITLE1=The Death of a Honky-Tonk Fool
TTITLE2=Pretty Little Lies
TTITLE3=The Company Of Strangers
TTITLE4=Comin' Down After Being In Love
TTITLE5=My Baby's A Lot Like Brown Sugar
TTITLE6=When You Smile
TTITLE7=Life As You Want It
TTITLE8=The One You Still Love
TTITLE9=Cemetary Road
TTITLE10=Your Faith In Me
TTITLE11=A Hard Act to Follow
TTITLE12=While the Band Plays Every Time We Say Goodbye
TTITLE13=Blues for the Big State
EXTD=YEAR: 2014
EXTT0=
EXTT1=
EXTT2=
EXTT3=
EXTT4=
EXTT5=
EXTT6=
EXTT7=
EXTT8=
EXTT9=
EXTT10=
EXTT11=
EXTT12=
EXTT13=
PLAYORDER=
